<?xml version="1.0" encoding="utf-8"?>
<!--<?xml-stylesheet type="text/css" href="svg.css"?>-->
<!DOCTYPE svg PUBLIC "-//W3C//DTD SVG 1.1//EN" "http://www.w3.org/Graphics/SVG/1.1/DTD/svg11.dtd">
<svg version="1.1" xmlns="http://www.w3.org/2000/svg" xmlns:xlink="http://www.w3.org/1999/xlink" x="0px" y="0px" width="16px" height="16px" viewBox="0 0 16 16" xml:space="preserve">
	
	<title>Thread</title> 
	<desc>Thread Icon</desc> 
	
	<!--
		@author		Harald Szekely 
		@copyright	2011 WoltLab GmbH 
		@license	GNU Lesser General Public License <http://opensource.org/licenses/lgpl-license.php> 
	--> 
	
	<defs>
		<style type="text/css">
			<![CDATA[
				.Upper1 {fill: #666;}
				.Lower1 {fill: #fff;}
			]]>
		</style>
	</defs>
	
	<g id="IconThread">
		<g id="Sheet">
			<path class="Lower1" style="fill-rule: evenodd; clip-rule: evenodd;" d="M10,2H2C1.5014648,2,1,2.5297852,1,3v11
				c0,0.5947266,0.484375,1,1,1h8c0.5,0,1-0.4521484,1-1V3C11,2.4052734,10.515625,2,10,2z M10,13c0,0.9853516-0.015625,1-1,1H3
				c-0.953125,0-1-0.0146484-1-1V4c0-1.0166016,0.03125-1,1-1h6c0.953125,0,1,0.0146484,1,1V13z"/>
			<path class="Upper1" style="fill-rule: evenodd; clip-rule: evenodd;" d="M10,1H2C1.5014648,1,1,1.5297852,1,2v11
				c0,0.5947266,0.484375,1,1,1h8c0.5,0,1-0.4521484,1-1V2C11,1.4052734,10.515625,1,10,1z M10,12c0,0.9853516-0.015625,1-1,1H3
				c-0.953125,0-1-0.0146484-1-1V3c0-1.0166016,0.03125-1,1-1h6c0.953125,0,1,0.0146484,1,1V12z"/>
		</g>
		<g id="Text">
			<path class="Lower1" style="fill-rule: evenodd; clip-rule: evenodd;" d="M8.4868164,4
				c0.2749023,0,0.5,0.2250977,0.5,0.5l0,0c0,0.2749023-0.2250977,0.5-0.5,0.5h-5c-0.2749023,0-0.5-0.2250977-0.5-0.5l0,0
				c0-0.2749023,0.2250977-0.5,0.5-0.5H8.4868164z M2.9868164,6.5c0,0.2749023,0.2250977,0.5,0.5,0.5h5
				c0.2749023,0,0.5-0.2250977,0.5-0.5l0,0c0-0.2749023-0.2250977-0.5-0.5-0.5h-5C3.2119141,6,2.9868164,6.2250977,2.9868164,6.5
				L2.9868164,6.5z M2.9868164,8.5c0,0.2749023,0.2250977,0.5,0.5,0.5h5c0.2749023,0,0.5-0.2250977,0.5-0.5l0,0
				c0-0.2749023-0.2250977-0.5-0.5-0.5h-5C3.2119141,8,2.9868164,8.2250977,2.9868164,8.5L2.9868164,8.5z M2.9868164,10.5
				c0,0.2753906,0.2250977,0.5,0.5,0.5h5c0.2749023,0,0.5-0.2246094,0.5-0.5l0,0c0-0.2753906-0.2250977-0.5-0.5-0.5h-5
				C3.2119141,10,2.9868164,10.2246094,2.9868164,10.5L2.9868164,10.5z M2.9868164,12.5c0,0.2753906,0.2250977,0.5,0.5,0.5h5
				c0.2749023,0,0.5-0.2246094,0.5-0.5l0,0c0-0.2753906-0.2250977-0.5-0.5-0.5h-5C3.2119141,12,2.9868164,12.2246094,2.9868164,12.5
				L2.9868164,12.5z"/>
			<path class="Upper1" style="fill-rule: evenodd; clip-rule: evenodd;" d="M8.4868164,3
				c0.2749023,0,0.5,0.2250977,0.5,0.5l0,0c0,0.2749023-0.2250977,0.5-0.5,0.5h-5c-0.2749023,0-0.5-0.2250977-0.5-0.5l0,0
				c0-0.2749023,0.2250977-0.5,0.5-0.5H8.4868164z M2.9868164,5.5c0,0.2749023,0.2250977,0.5,0.5,0.5h5
				c0.2749023,0,0.5-0.2250977,0.5-0.5l0,0c0-0.2749023-0.2250977-0.5-0.5-0.5h-5C3.2119141,5,2.9868164,5.2250977,2.9868164,5.5
				L2.9868164,5.5z M2.9868164,7.5c0,0.2749023,0.2250977,0.5,0.5,0.5h5c0.2749023,0,0.5-0.2250977,0.5-0.5l0,0
				c0-0.2749023-0.2250977-0.5-0.5-0.5h-5C3.2119141,7,2.9868164,7.2250977,2.9868164,7.5L2.9868164,7.5z M2.9868164,9.5
				c0,0.2753906,0.2250977,0.5,0.5,0.5h5c0.2749023,0,0.5-0.2246094,0.5-0.5l0,0c0-0.2753906-0.2250977-0.5-0.5-0.5h-5
				C3.2119141,9,2.9868164,9.2246094,2.9868164,9.5L2.9868164,9.5z M2.9868164,11.5c0,0.2753906,0.2250977,0.5,0.5,0.5h5
				c0.2749023,0,0.5-0.2246094,0.5-0.5l0,0c0-0.2753906-0.2250977-0.5-0.5-0.5h-5C3.2119141,11,2.9868164,11.2246094,2.9868164,11.5
				L2.9868164,11.5z"/>
		</g>
	</g>
</svg>
